<mxfile host="app.diagrams.net" agent="Mozilla/5.0 (Windows NT 10.0; Win64; x64) AppleWebKit/537.36 (KHTML, like Gecko) Chrome/129.0.0.0 Safari/537.36" version="24.7.17">
  <diagram name="Página-1" id="b1_emd6X0YbIIAMxYeuw">
    <mxGraphModel dx="1434" dy="780" grid="1" gridSize="10" guides="1" tooltips="1" connect="1" arrows="1" fold="1" page="1" pageScale="1" pageWidth="827" pageHeight="1169" math="0" shadow="0">
      <root>
        <mxCell id="0" />
        <mxCell id="1" parent="0" />
        <mxCell id="oy-FDCa6h3TctKJmOMZL-3" value="" style="edgeStyle=orthogonalEdgeStyle;rounded=0;orthogonalLoop=1;jettySize=auto;html=1;" edge="1" parent="1" source="oy-FDCa6h3TctKJmOMZL-1" target="oy-FDCa6h3TctKJmOMZL-2">
          <mxGeometry relative="1" as="geometry" />
        </mxCell>
        <mxCell id="oy-FDCa6h3TctKJmOMZL-1" value="inicio&amp;nbsp;" style="ellipse;whiteSpace=wrap;html=1;aspect=fixed;" vertex="1" parent="1">
          <mxGeometry x="99" y="130" width="80" height="80" as="geometry" />
        </mxCell>
        <mxCell id="oy-FDCa6h3TctKJmOMZL-5" value="" style="edgeStyle=orthogonalEdgeStyle;rounded=0;orthogonalLoop=1;jettySize=auto;html=1;" edge="1" parent="1" source="oy-FDCa6h3TctKJmOMZL-2" target="oy-FDCa6h3TctKJmOMZL-4">
          <mxGeometry relative="1" as="geometry" />
        </mxCell>
        <mxCell id="oy-FDCa6h3TctKJmOMZL-2" value="var nome&lt;div&gt;var numero&lt;/div&gt;" style="shape=parallelogram;perimeter=parallelogramPerimeter;whiteSpace=wrap;html=1;fixedSize=1;" vertex="1" parent="1">
          <mxGeometry x="219" y="140" width="120" height="60" as="geometry" />
        </mxCell>
        <mxCell id="oy-FDCa6h3TctKJmOMZL-7" value="" style="edgeStyle=orthogonalEdgeStyle;rounded=0;orthogonalLoop=1;jettySize=auto;html=1;" edge="1" parent="1" source="oy-FDCa6h3TctKJmOMZL-4" target="oy-FDCa6h3TctKJmOMZL-6">
          <mxGeometry relative="1" as="geometry" />
        </mxCell>
        <mxCell id="oy-FDCa6h3TctKJmOMZL-4" value="Escreva(&quot;Informe seu nome&quot;)" style="shape=parallelogram;perimeter=parallelogramPerimeter;whiteSpace=wrap;html=1;fixedSize=1;" vertex="1" parent="1">
          <mxGeometry x="379" y="120" width="187" height="100" as="geometry" />
        </mxCell>
        <mxCell id="oy-FDCa6h3TctKJmOMZL-11" style="edgeStyle=orthogonalEdgeStyle;rounded=0;orthogonalLoop=1;jettySize=auto;html=1;entryX=1;entryY=0.5;entryDx=0;entryDy=0;" edge="1" parent="1" source="oy-FDCa6h3TctKJmOMZL-6" target="oy-FDCa6h3TctKJmOMZL-9">
          <mxGeometry relative="1" as="geometry">
            <Array as="points">
              <mxPoint x="729" y="170" />
              <mxPoint x="729" y="340" />
            </Array>
          </mxGeometry>
        </mxCell>
        <mxCell id="oy-FDCa6h3TctKJmOMZL-6" value="leia(nome)" style="shape=parallelogram;perimeter=parallelogramPerimeter;whiteSpace=wrap;html=1;fixedSize=1;" vertex="1" parent="1">
          <mxGeometry x="599" y="140" width="123" height="60" as="geometry" />
        </mxCell>
        <mxCell id="oy-FDCa6h3TctKJmOMZL-8" value="" style="edgeStyle=orthogonalEdgeStyle;rounded=0;orthogonalLoop=1;jettySize=auto;html=1;" edge="1" parent="1" source="oy-FDCa6h3TctKJmOMZL-9" target="oy-FDCa6h3TctKJmOMZL-10">
          <mxGeometry relative="1" as="geometry" />
        </mxCell>
        <mxCell id="oy-FDCa6h3TctKJmOMZL-9" value="Escreva(&quot;Escreva um numero&quot;)" style="shape=parallelogram;perimeter=parallelogramPerimeter;whiteSpace=wrap;html=1;fixedSize=1;" vertex="1" parent="1">
          <mxGeometry x="509" y="290" width="197" height="100" as="geometry" />
        </mxCell>
        <mxCell id="oy-FDCa6h3TctKJmOMZL-13" value="" style="edgeStyle=orthogonalEdgeStyle;rounded=0;orthogonalLoop=1;jettySize=auto;html=1;" edge="1" parent="1" source="oy-FDCa6h3TctKJmOMZL-10" target="oy-FDCa6h3TctKJmOMZL-12">
          <mxGeometry relative="1" as="geometry" />
        </mxCell>
        <mxCell id="oy-FDCa6h3TctKJmOMZL-10" value="leia(numero)" style="shape=parallelogram;perimeter=parallelogramPerimeter;whiteSpace=wrap;html=1;fixedSize=1;" vertex="1" parent="1">
          <mxGeometry x="359" y="310" width="123" height="60" as="geometry" />
        </mxCell>
        <mxCell id="oy-FDCa6h3TctKJmOMZL-12" value="Escreva(&quot;Olá&quot;, nome, &quot;, o numero informado foi &quot;, numero )" style="shape=document;whiteSpace=wrap;html=1;boundedLbl=1;" vertex="1" parent="1">
          <mxGeometry x="109" y="280" width="158.5" height="120" as="geometry" />
        </mxCell>
      </root>
    </mxGraphModel>
  </diagram>
</mxfile>
